<mxfile host="app.diagrams.net" agent="Mozilla/5.0 (Macintosh; Intel Mac OS X 10_15_7) AppleWebKit/537.36 (KHTML, like Gecko) Chrome/139.0.0.0 Safari/537.36" version="28.1.2">
  <diagram name="第 1 页" id="uxVhiXiy4YMAhK3iKIYt">
    <mxGraphModel dx="946" dy="541" grid="0" gridSize="10" guides="1" tooltips="1" connect="1" arrows="1" fold="1" page="1" pageScale="1" pageWidth="1654" pageHeight="1169" math="0" shadow="0">
      <root>
        <mxCell id="0" />
        <mxCell id="1" parent="0" />
        <mxCell id="FnIHT5pYeZ_xfr5wdZOx-3" value="" style="edgeStyle=orthogonalEdgeStyle;rounded=0;orthogonalLoop=1;jettySize=auto;html=1;" edge="1" parent="1" source="FnIHT5pYeZ_xfr5wdZOx-1" target="FnIHT5pYeZ_xfr5wdZOx-2">
          <mxGeometry relative="1" as="geometry" />
        </mxCell>
        <mxCell id="FnIHT5pYeZ_xfr5wdZOx-1" value="资源调控" style="rounded=1;whiteSpace=wrap;html=1;fillColor=#ffe6cc;strokeColor=#d79b00;fontStyle=1" vertex="1" parent="1">
          <mxGeometry x="390" y="55" width="120" height="60" as="geometry" />
        </mxCell>
        <mxCell id="FnIHT5pYeZ_xfr5wdZOx-2" value="指标管理" style="whiteSpace=wrap;html=1;fillColor=#ffe6cc;strokeColor=#d79b00;rounded=1;fontStyle=1;" vertex="1" parent="1">
          <mxGeometry x="390" y="136" width="120" height="60" as="geometry" />
        </mxCell>
        <mxCell id="FnIHT5pYeZ_xfr5wdZOx-10" value="" style="edgeStyle=orthogonalEdgeStyle;sourcePerimeterSpacing=0;targetPerimeterSpacing=0;startArrow=none;endArrow=none;rounded=0;targetPortConstraint=eastwest;sourcePortConstraint=northsouth;curved=0;rounded=0;" edge="1" target="FnIHT5pYeZ_xfr5wdZOx-12" parent="1">
          <mxGeometry relative="1" as="geometry">
            <mxPoint x="450" y="195" as="sourcePoint" />
          </mxGeometry>
        </mxCell>
        <mxCell id="FnIHT5pYeZ_xfr5wdZOx-11" value="" style="edgeStyle=orthogonalEdgeStyle;sourcePerimeterSpacing=0;targetPerimeterSpacing=0;startArrow=none;endArrow=none;rounded=0;targetPortConstraint=eastwest;sourcePortConstraint=northsouth;curved=0;rounded=0;" edge="1" target="FnIHT5pYeZ_xfr5wdZOx-13" parent="1">
          <mxGeometry relative="1" as="geometry">
            <mxPoint x="450" y="195" as="sourcePoint" />
          </mxGeometry>
        </mxCell>
        <mxCell id="FnIHT5pYeZ_xfr5wdZOx-12" value="年度指标编制" style="whiteSpace=wrap;html=1;align=center;verticalAlign=middle;treeFolding=1;treeMoving=1;fillColor=#dae8fc;strokeColor=#6c8ebf;" vertex="1" parent="1">
          <mxGeometry x="292" y="235" width="100" height="60" as="geometry" />
        </mxCell>
        <mxCell id="FnIHT5pYeZ_xfr5wdZOx-13" value="执行指标编制" style="whiteSpace=wrap;html=1;align=center;verticalAlign=middle;treeFolding=1;treeMoving=1;fillColor=#f8cecc;strokeColor=#b85450;" vertex="1" parent="1">
          <mxGeometry x="520" y="235" width="100" height="60" as="geometry" />
        </mxCell>
      </root>
    </mxGraphModel>
  </diagram>
</mxfile>
